<?xml version="1.0" standalone="no"?>
<!DOCTYPE svg PUBLIC "-//W3C//DTD SVG 20010904//EN"
 "http://www.w3.org/TR/2001/REC-SVG-20010904/DTD/svg10.dtd">
<svg version="1.0" xmlns="http://www.w3.org/2000/svg"
 width="852.000000pt" height="480.000000pt" viewBox="0 0 852.000000 480.000000"
 preserveAspectRatio="xMidYMid meet">
<metadata>
Created by potrace 1.15, written by Peter Selinger 2001-2017
</metadata>
<g transform="translate(0.000000,480.000000) scale(0.100000,-0.100000)"
fill="#000000" stroke="none">
<path d="M0 3000 l0 -1800 1626 0 c1067 0 1632 -3 1644 -10 35 -19 29 6 -12
56 -140 167 -258 423 -303 655 -23 118 -30 332 -16 459 39 338 183 643 415
875 55 55 99 103 98 107 -1 4 5 5 13 2 8 -3 19 3 27 15 7 12 17 21 21 21 5 0
28 13 51 29 116 80 304 155 471 188 122 25 343 22 475 -6 842 -178 1308 -1131
969 -1981 -42 -104 -109 -222 -186 -324 -36 -48 -64 -88 -62 -89 2 -1 743 -1
1647 1 l1642 2 0 1800 0 1800 -4260 0 -4260 0 0 -1800z m3905 601 c-100 -34
-167 -64 -204 -91 -16 -11 -35 -20 -43 -20 -8 0 -24 -9 -36 -20 -12 -12 -22
-18 -22 -14 0 4 -10 -1 -22 -12 -13 -11 -50 -38 -82 -60 -59 -38 -306 -274
-306 -292 0 -4 -8 -17 -18 -28 -9 -10 -37 -49 -61 -86 -44 -68 -65 -92 -36
-40 140 250 342 450 578 575 71 37 233 101 277 110 58 10 50 4 -25 -22z"/>
<path d="M4065 3454 c-353 -62 -669 -300 -844 -634 -106 -202 -154 -403 -154
-640 0 -353 134 -688 367 -919 l64 -64 98 2 c54 1 99 3 101 4 1 2 -32 28 -73
60 -189 146 -310 350 -321 539 -7 113 8 192 58 295 38 81 76 123 109 123 45 0
163 -109 204 -189 22 -41 16 -65 -29 -116 -103 -118 -81 -251 68 -399 82 -81
148 -118 223 -124 65 -5 116 11 163 53 62 55 76 59 124 36 47 -23 140 -108
168 -155 26 -43 24 -73 -7 -101 l-27 -25 303 0 303 0 77 78 c67 68 127 139
168 198 7 11 6 5 -3 -13 -19 -41 -128 -179 -171 -218 -19 -17 -34 -34 -34 -38
0 -42 149 109 234 236 99 150 158 294 197 480 29 135 31 369 4 507 -88 466
-399 841 -810 979 -178 60 -384 76 -560 45z m-586 -600 c37 -31 41 -64 8 -64
-12 0 -28 9 -35 20 -14 23 -64 27 -80 8 -30 -39 -25 -120 9 -139 28 -14 66 -4
74 21 4 13 15 20 31 20 56 0 5 -83 -60 -95 -26 -5 -44 -2 -68 12 -43 25 -58
56 -58 122 0 47 4 57 34 87 44 44 99 47 145 8z m1361 -53 c0 -98 11 -131 44
-131 37 0 45 19 48 116 3 88 3 89 28 89 24 0 25 -3 28 -75 5 -105 -10 -148
-55 -167 -47 -19 -96 -10 -123 24 -17 22 -20 40 -20 124 0 99 0 99 25 99 25 0
25 -1 25 -79z m-1137 -1 c57 -45 41 -147 -27 -170 -27 -9 -41 -8 -70 4 -67 28
-72 136 -7 171 37 20 74 18 104 -5z m225 4 c20 -13 22 -24 22 -95 0 -77 -1
-79 -25 -79 -23 0 -24 3 -27 68 -3 64 -4 67 -28 67 -24 0 -25 -3 -28 -67 -3
-65 -4 -68 -27 -68 -25 0 -25 1 -25 90 l0 91 35 -3 c19 -1 37 1 41 5 12 12 38
8 62 -9z m327 4 c29 -13 33 -27 37 -116 3 -62 3 -62 -24 -62 -16 0 -28 4 -28
9 0 6 -12 4 -26 -4 -41 -21 -84 1 -84 43 0 34 27 62 59 62 14 0 33 5 41 10 13
9 13 11 0 20 -20 13 -26 13 -44 -5 -17 -17 -56 -20 -56 -5 0 20 49 60 74 60
14 0 37 -5 51 -12z m228 -19 c9 -12 17 -25 17 -30 0 -18 -31 -21 -49 -5 -25
23 -50 20 -63 -9 -8 -19 -8 -31 0 -50 13 -28 47 -34 56 -10 3 8 17 15 31 15
29 0 29 0 14 -34 -22 -48 -103 -55 -138 -12 -19 22 -24 87 -9 116 28 52 104
62 141 19z m699 0 c10 -11 16 -25 13 -29 -7 -11 -43 -4 -61 11 -15 12 -44 6
-44 -10 0 -5 15 -12 33 -15 72 -13 99 -63 56 -102 -31 -28 -106 -25 -131 6
-25 31 -23 40 12 40 17 0 30 -4 30 -9 0 -13 27 -21 45 -15 27 11 16 23 -31 36
-53 15 -70 34 -61 70 13 50 104 61 139 17z m-42 -359 c13 -13 20 -34 20 -57 1
-21 0 -191 0 -378 -1 -333 -1 -340 -22 -362 l-21 -23 -559 0 -559 0 -24 25
-25 24 0 372 c0 369 0 373 22 396 l21 23 564 0 c550 0 563 0 583 -20z"/>
<path d="M4280 2165 c165 -165 262 -255 275 -255 13 0 110 90 275 255 l255
255 -530 0 -530 0 255 -255z"/>
<path d="M3986 2385 c-9 -25 -7 -713 2 -719 5 -3 91 78 193 180 l184 184 -186
186 c-145 144 -188 182 -193 169z"/>
<path d="M4930 2215 l-185 -185 185 -185 c102 -102 188 -185 192 -185 5 0 8
167 8 370 0 204 -3 370 -8 370 -4 0 -90 -83 -192 -185z"/>
<path d="M4205 1820 l-180 -180 530 0 530 0 -182 182 -183 183 -65 -65 c-55
-54 -70 -64 -100 -64 -30 0 -45 9 -98 62 -34 34 -65 62 -67 62 -3 0 -86 -81
-185 -180z"/>
<path d="M3925 774 c10 -8 24 -14 29 -15 6 0 20 -2 31 -5 119 -23 179 -28 320
-26 119 2 168 6 193 18 33 16 45 39 15 30 -94 -28 -355 -31 -486 -5 -28 6 -67
12 -86 13 -32 3 -33 2 -16 -10z"/>
<path d="M7080 300 c-8 -5 -33 -10 -55 -11 -28 -1 -33 -3 -15 -6 14 -3 28 -9
31 -14 3 -6 16 -6 32 0 16 6 46 7 81 1 31 -5 72 -7 93 -4 36 4 36 4 13 -8 -22
-10 -626 -15 -1135 -9 -106 1 -225 -6 -233 -14 -3 -3 42 -5 99 -5 57 -1 135
-5 173 -10 44 -5 76 -5 91 2 16 7 29 7 44 -1 14 -8 21 -8 21 -1 0 5 15 10 33
10 25 0 29 -3 17 -11 -11 -8 10 -9 75 -4 131 10 408 14 355 5 -79 -13 122 -18
404 -10 112 3 151 1 154 -8 2 -7 13 -12 23 -12 11 0 18 4 15 9 -3 5 11 11 32
15 21 3 38 1 40 -4 2 -6 19 -10 37 -10 18 0 46 -7 61 -15 17 -9 30 -11 32 -5
5 13 39 13 47 0 3 -5 16 -11 28 -11 13 -1 8 -4 -13 -8 l-35 -7 48 -8 c26 -4
45 -11 42 -17 -4 -5 5 -9 19 -9 14 0 26 5 26 10 0 6 32 10 73 11 l72 1 -60 13
c-48 10 -54 13 -30 16 17 1 -8 6 -55 9 -79 6 -74 6 60 9 80 1 154 7 165 12 13
6 -27 8 -117 6 -76 -2 -138 0 -138 5 0 4 44 9 98 10 77 1 88 2 52 8 l-45 7 52
1 c28 1 55 -2 58 -8 3 -5 86 -10 198 -10 106 0 235 -2 287 -3 52 -1 85 -1 73
1 -13 2 -23 7 -23 12 0 5 10 11 23 13 13 3 6 5 -18 6 -30 2 -35 4 -20 10 15 6
12 9 -19 14 -20 3 -49 2 -62 -4 -34 -12 -44 -11 -41 4 1 7 -11 13 -30 15 -37
4 -45 -14 -10 -21 12 -2 -15 -5 -60 -6 -51 0 -83 3 -83 9 0 7 -54 9 -160 5
-103 -3 -160 -1 -160 5 0 6 -8 11 -17 12 -10 1 23 4 72 8 50 3 -110 7 -355 8
-270 1 -451 -2 -460 -8z"/>
<path d="M1153 266 c-16 -5 -281 -11 -590 -13 l-563 -4 0 -31 0 -31 53 7 c28
3 226 9 440 12 287 5 387 4 387 -5 0 -6 17 -11 40 -11 22 0 40 5 40 11 0 7 39
10 123 8 67 -1 154 -2 192 -2 39 0 93 0 120 0 207 -3 1752 6 1795 10 121 14
-9 23 -313 22 -176 0 -314 4 -320 9 -7 6 -136 6 -332 0 -176 -5 -331 -6 -345
-3 -24 6 -24 7 -6 21 17 12 -30 13 -337 11 -196 -1 -369 -6 -384 -11z"/>
<path d="M4923 253 c-112 -2 -203 -7 -203 -11 0 -4 56 -7 124 -7 81 1 124 -3
123 -10 -3 -16 623 -11 633 5 6 9 24 11 62 8 29 -3 64 -2 78 2 22 7 20 8 -15
10 -81 4 -606 5 -802 3z"/>
</g>
</svg>
